<?xml version="1.0" encoding="utf-8"?>
<!-- Generator: Adobe Illustrator 26.0.2, SVG Export Plug-In . SVG Version: 6.00 Build 0)  -->
<svg version="1.1" id="Layer_1" xmlns="http://www.w3.org/2000/svg" xmlns:xlink="http://www.w3.org/1999/xlink" x="0px" y="0px"
	 viewBox="0 0 92 30" style="enable-background:new 0 0 92 30;" xml:space="preserve">
<style type="text/css">
	.st0{fill-rule:evenodd;clip-rule:evenodd;fill:#FEEFCE;}
	.st1{fill-rule:evenodd;clip-rule:evenodd;fill:#FFE4E4;}
	.st2{fill-rule:evenodd;clip-rule:evenodd;fill:#D5E2CF;}
	.st3{fill:#FDFEFE;}
	.st4{fill:#0422C9;}
	.st5{fill:#05B2F1;}
	.st6{fill:#FFFFFF;}
</style>
<desc>Created with Sketch.</desc>
<g id="Landing-Page" transform="translate(-29.000000, -22.000000)">
	<g id="logo" transform="translate(29.000000, 22.000000)">
		<circle id="Oval" class="st0" cx="47" cy="15" r="15"/>
		<rect id="Rectangle-2" y="2" class="st1" width="27" height="27"/>
		<polygon id="Triangle" class="st2" points="78.5,2 92,29 65,29 		"/>
	</g>
</g>
<g>
	<g>
		<path class="st3" d="M53.9,40.2c-15.7,0-31.3,0-47,0c-0.7,0-0.8-0.1-0.8-0.8c0-16.3,0-32.7,0-49c0-0.6,0.1-0.8,0.8-0.8
			c31.3,0,62.6,0,93.9,0c0.7,0,0.8,0.1,0.8,0.8c0,16.3,0,32.7,0,49c0,0.6-0.1,0.8-0.8,0.8C85.2,40.2,69.5,40.2,53.9,40.2z M41.7,8.1
			C39.4,5.8,37,3.4,34.5,1c-0.3-0.3-0.7-0.3-1.1-0.3c-5.3,0-10.5,0-15.8,0c-0.7,0-0.9,0.1-0.8,0.8c0,1.6,0,3.2,0,4.8
			c0,0.7-0.2,1-0.9,1.3C11.6,9,9,13.1,9.8,17.2c1.2,6.1,8.2,9.2,14.2,6.3c0.6-0.3,0.9-0.2,1.3,0.2c2.1,1.9,4.3,3.7,6.4,5.5
			c0.3,0.3,0.6,0.5,1,0.5c5.1,0,10.2,0,15.3,0c0.5,0,0.7-0.2,0.7-0.6c0-1.3,0-2.6,0-4c0-2.2,0-2.2-2.4-2.1c-0.5,0-0.6,0.1-0.6,0.6
			c0,0.8,0,1.7,0,2.5c0,0.6-0.1,0.8-0.9,0.8c-3.6,0-7.1,0-10.7,0c-0.5,0-0.8-0.1-1.1-0.4c-1.8-1.6-3.5-3.1-5.3-4.7
			c-0.5-0.4-0.5-0.7-0.1-1.2c4.2-5.8-0.1-13.1-6.9-13.7c-0.5,0-0.7-0.3-0.7-0.7c0-0.7,0-1.5,0-2.2c0-0.5,0.1-0.7,0.7-0.7
			c3.9,0,7.7,0,11.6,0c0.5,0,0.9,0.1,1.2,0.5c1.3,1.3,2.7,2.5,4.1,3.7c0.2,0.2,0.4,0.5,0.8,0.5C39.6,8.1,40.9,8.1,41.7,8.1z
			 M33.4,16.2c0,1.3,0,2.6,0,3.9c0,1.8,0,1.7,1.9,1.7c0.7,0,0.8-0.2,0.8-0.8c0-1.1,0-2.2,0-3.2c0-0.5,0.1-0.7,0.7-0.7
			c1.1,0,2.2,0,3.3,0c0.6,0,0.7,0.2,0.7,0.7c0,0.8,0,1.7,0,2.5c0,1.5,0,1.4,1.6,1.5c0.8,0,1.1-0.2,1.1-1c-0.1-2.9,0-5.7,0-8.6
			c0-1.7,0-1.6-1.8-1.6c-0.7,0-0.8,0.3-0.8,0.8c0,1,0,2,0,3c0,0.5-0.2,0.7-0.8,0.7c-1,0-2.1,0-3.1,0c-0.6,0-0.8-0.2-0.8-0.7
			c0-0.7,0-1.4,0-2.1c0-1.7,0-1.7-1.9-1.7c-0.7,0-0.8,0.2-0.8,0.8C33.5,13,33.4,14.6,33.4,16.2z M72.7,21.8c0.7,0,1.3-0.1,1.9,0
			c0.9,0.1,1.3-0.2,1.6-1c0.7-1.6,0.7-1.5,2.7-1.7c1.9-0.1,3.2,0.2,3.5,2.1c0.1,0.3,0.2,0.6,0.7,0.6c0.8,0,1.7,0,2.5,0
			c0.1-0.3-0.1-0.6-0.2-0.8c-1.3-2.8-2.6-5.7-3.8-8.5c-0.9-1.9-0.9-1.9-3.2-1.9c-0.6,0-0.8,0.2-1,0.7c-0.4,1-0.9,2-1.3,3
			C75,16.7,73.9,19.2,72.7,21.8z M51.6,17.3C51.6,17.2,51.6,17.2,51.6,17.3c0.8,0,1.7-0.1,2.5,0c1.1,0.1,0.8-0.6,0.9-1.1
			c0.1-0.6,0-1-0.9-0.9c-1.7,0.1-3.5,0-5.2,0c-0.6,0-0.8-0.1-0.7-0.7c0.2-1.2,0.9-1.8,2.2-1.9c1.3-0.1,2.6-0.1,3.8,0
			c0.8,0,0.8-0.4,0.7-0.9c-0.1-0.4,0.4-1.2-0.7-1.2c-1.5,0-3.1,0-4.6,0c-1.2,0-2.1,0.5-2.9,1.3c-1.9,2.1-2,4.4-1.1,6.9
			c0.6,1.7,1.9,2.6,3.8,2.8c1.3,0.1,2.7,0.1,4,0.1c1.6,0,1.4,0.3,1.4-1.3c0-0.6-0.2-0.7-0.8-0.7c-1.1,0-2.2,0-3.2,0
			c-1.6-0.1-2.5-0.7-2.7-1.9c-0.1-0.5,0-0.6,0.5-0.6C49.7,17.3,50.6,17.3,51.6,17.3z M66.6,14.9C66,14,65.4,13.2,65,12.3
			c-0.6-1.4-1.7-1.9-3.3-1.7c0,0-0.1,0-0.1,0c-0.6,0-0.7,0.2-0.3,0.6c0.7,1,1.3,2.1,2.2,3c1.7,1.8,2.1,3.8,1.9,6.1
			c-0.1,1.5,0,1.5,1.7,1.5c0.8,0,1.1-0.2,0.9-0.9c-0.5-2.8,0.5-5.2,2.5-7.3c0.6-0.7,1.1-1.5,1.7-2.2c0.2-0.2,0.4-0.4,0.3-0.8
			c-0.5,0-0.9,0-1.4,0c-1,0-1.9,0.3-2.4,1.3C68.1,12.9,67.3,13.9,66.6,14.9z M59.6,16.3c0-1.4,0-2.8,0-4.1c0-1.6,0-1.5-1.7-1.6
			c-0.7,0-1,0.2-1,0.9c0,2.9,0,5.8,0,8.7c0,1.7,0,1.6,1.8,1.6c0.7,0,0.9-0.2,0.9-0.8C59.6,19.4,59.6,17.9,59.6,16.3z M62.7,26.7
			c0,0.7,0,1.1,0,1.5c0,0.3,0.1,0.5,0.4,0.5c0.3,0,0.5-0.1,0.5-0.5c0-0.7,0-1.4,0-2.1c0-0.2,0.1-0.6-0.3-0.7
			c-0.4-0.1-0.6,0.1-0.8,0.4c-0.2,0.3-0.4,0.8-0.9,1c-0.3-0.4-0.6-0.8-0.9-1.1c-0.2-0.3-0.5-0.3-0.8-0.2c-0.3,0.1-0.2,0.3-0.2,0.5
			c0,0.7,0,1.4,0,2.1c0,0.3,0,0.6,0.4,0.5c0.5,0,0.4-0.3,0.4-0.6c0-0.4-0.1-0.8,0.2-1.2C61.3,27.7,61.9,27.7,62.7,26.7z M74.5,27.2
			c-0.1,0-0.1,0-0.2,0c-0.4-0.5-0.9-1.1-1.3-1.6c-0.2-0.3-0.5-0.3-0.8-0.3c-0.4,0.1-0.3,0.4-0.3,0.6c0,0.7,0,1.4,0,2
			c0,0.3-0.1,0.6,0.4,0.6c0.5,0,0.4-0.3,0.4-0.6c0-0.4,0-0.9,0-1.3c0.7,0.5,1.1,1.1,1.5,1.6c0.2,0.3,0.5,0.3,0.8,0.2
			c0.3-0.1,0.2-0.3,0.2-0.5c0-0.7,0-1.4,0-2.1c0-0.3,0-0.6-0.5-0.5c-0.5,0-0.4,0.3-0.4,0.6C74.5,26.4,74.5,26.8,74.5,27.2z M59.2,27
			c0-1.6,0-1.7-1.6-1.7c-1.8,0-1.9,0-1.9,1.6c0,1.6,0,1.6,1.7,1.6C59.2,28.6,59.2,28.6,59.2,27z M90.1,26.7c0,0.6,0,1,0,1.4
			c0,0.3,0,0.5,0.4,0.5c0.4,0,0.4-0.3,0.4-0.5c0-0.7,0-1.4,0-2.1c0-0.2,0.1-0.5-0.3-0.6c-0.3,0-0.6,0-0.8,0.3
			c-0.2,0.4-0.5,0.7-0.8,1.1c-0.5-0.3-0.7-0.7-1-1.1c-0.2-0.3-0.5-0.3-0.8-0.2c-0.3,0.1-0.2,0.3-0.2,0.5c0,0.7,0,1.4,0,2.1
			c0,0.3,0,0.6,0.5,0.5c0.4,0,0.4-0.3,0.4-0.5c0-0.4,0-0.8,0-1.3C88.9,27.7,89.2,27.7,90.1,26.7z M64,27c0,0.4,0,0.8,0,1.2
			c0,0.2,0,0.4,0.4,0.4c0.3,0,0.5-0.1,0.5-0.4c-0.1-0.6,0.3-0.7,0.8-0.7c0.3,0,0.7,0,1-0.1c0.5-0.1,0.7-0.4,0.8-0.8
			c0.1-0.4-0.1-0.8-0.5-1c-0.4-0.2-0.8-0.2-1.2-0.2C64,25.4,64,25.4,64,27z M94.9,26.8c-0.9,0-1.5,0-2.2,0c-0.2,0-0.5,0.1-0.5-0.2
			c0-0.3,0.2-0.5,0.5-0.5c0.7,0,1.2-0.4,1.8-0.6c-0.6,0-1.3-0.1-1.9,0c-0.9,0.1-1.2,0.6-1.2,1.4c0,0.8,0,1.6,1.1,1.8
			c0.6,0.1,1.3,0,1.9,0c0.2,0,0.4,0,0.4-0.2c0-0.2-0.1-0.3-0.4-0.3c-0.5,0-0.9,0-1.4,0c-0.4,0-0.7-0.2-0.7-0.5
			c0-0.4,0.4-0.2,0.7-0.3C93.6,27.2,94.2,27.4,94.9,26.8z M81.8,27.3c-0.1,0-0.1,0-0.2,0.1c-0.4-0.5-0.9-1.1-1.3-1.6
			c-0.2-0.3-0.5-0.4-0.9-0.3c-0.4,0.1-0.2,0.4-0.2,0.6c0,0.7,0,1.3,0,2c0,0.3,0,0.6,0.4,0.5c0.4,0,0.4-0.3,0.4-0.5
			c0-0.5,0-0.9,0-1.6c0.6,0.8,1,1.3,1.5,1.9c0.2,0.3,0.5,0.4,0.9,0.3c0.4-0.1,0.2-0.4,0.3-0.6c0-0.7,0-1.4,0-2.1
			c0-0.3-0.1-0.5-0.5-0.5c-0.3,0-0.4,0.2-0.4,0.4C81.8,26.3,81.8,26.8,81.8,27.3z M84.8,26.3c0.4,0.8,0.7,1.4,1,2.1
			c0.2,0.3,0.5,0.4,0.7,0.3c0.3-0.1,0-0.4,0-0.5c-0.3-0.8-0.7-1.5-1.1-2.3c-0.2-0.5-1-0.5-1.2-0.1c-0.5,0.9-0.9,1.9-1.4,3
			c0.7,0,1.2,0,1.8,0c0.2,0,0.4,0,0.4-0.2c0-0.2-0.1-0.3-0.3-0.3c-1,0-0.6-0.5-0.4-0.9C84.5,27,84.6,26.7,84.8,26.3z M69.7,26.3
			c0.4,0.8,0.7,1.4,1,2c0.1,0.3,0.4,0.4,0.7,0.3c0.2,0,0.2-0.2,0.1-0.4c-0.4-0.9-0.7-1.8-1.2-2.6c-0.2-0.4-0.9-0.4-1.1,0
			c-0.5,0.9-0.9,1.9-1.4,3c0.7,0,1.2,0,1.8,0c0.2,0,0.4,0,0.4-0.2c0-0.2-0.1-0.3-0.3-0.3c-1,0-0.6-0.5-0.4-0.9
			C69.3,27,69.5,26.7,69.7,26.3z M53.9,28.6c0,0,0.1,0,0.1,0c0.4-0.1,1.3,0.2,1.3-0.3c0-0.6-0.8-0.3-1.3-0.3c-0.9,0-1.3-0.2-1.3-1.1
			c0-0.9,0.3-1.2,1.3-1.1c0.3,0,0.6,0,0.9,0c0.2,0,0.4-0.1,0.4-0.3c0-0.2-0.2-0.2-0.4-0.2c-0.7,0-1.4,0-2.1,0
			c-0.4,0-0.7,0.3-0.8,0.6C51.4,27.6,52.1,28.6,53.9,28.6z M75.6,25.5c0.7,0.9,1.5,1.6,1.2,2.8c-0.1,0.3,0.2,0.4,0.5,0.3
			c0.3,0,0.4-0.2,0.3-0.4c-0.2-0.9,0.3-1.6,0.9-2.2c0.1-0.1,0.3-0.2,0.2-0.5c-0.9-0.3-0.9,0.7-1.5,0.9
			C76.7,26.1,76.6,25.2,75.6,25.5z"/>
		<path class="st4" d="M41.7,8.1c-0.8,0-2.1,0-3.4,0c-0.4,0-0.6-0.3-0.8-0.5c-1.4-1.2-2.7-2.5-4.1-3.7c-0.4-0.3-0.7-0.5-1.2-0.5
			c-3.9,0-7.7,0-11.6,0c-0.6,0-0.7,0.1-0.7,0.7C20,4.8,20,5.5,20,6.3c0,0.4,0.1,0.7,0.7,0.7c6.8,0.6,11,7.9,6.9,13.7
			c-0.4,0.5-0.4,0.8,0.1,1.2c1.8,1.5,3.6,3.1,5.3,4.7c0.3,0.3,0.7,0.4,1.1,0.4c3.6,0,7.1,0,10.7,0c0.7,0,0.9-0.2,0.9-0.8
			c-0.1-0.8,0-1.7,0-2.5c0-0.4,0.2-0.6,0.6-0.6c2.4-0.1,2.4-0.1,2.4,2.1c0,1.3,0,2.6,0,4c0,0.5-0.1,0.6-0.7,0.6
			c-5.1,0-10.2,0-15.3,0c-0.5,0-0.7-0.2-1-0.5c-2.1-1.8-4.3-3.7-6.4-5.5c-0.4-0.4-0.7-0.5-1.3-0.2c-6,2.9-12.9-0.2-14.2-6.3
			C9,13.1,11.6,9,16,7.5c0.8-0.3,0.9-0.6,0.9-1.3c-0.1-1.6,0-3.2,0-4.8c0-0.6,0.2-0.8,0.8-0.8c5.3,0,10.5,0,15.8,0
			c0.4,0,0.8,0,1.1,0.3C37,3.4,39.4,5.8,41.7,8.1z M26.6,15.6c-0.1-3.6-3.4-6.6-7.1-6.5c-4.1,0.1-7.3,3.1-7.2,6.7
			c0.1,3.8,3.4,6.6,7.5,6.4C23.6,22.2,26.7,19.1,26.6,15.6z"/>
		<path class="st5" d="M33.4,16.2c0-1.6,0-3.2,0-4.8c0-0.5,0.1-0.8,0.8-0.8c1.9,0,1.9-0.1,1.9,1.7c0,0.7,0,1.4,0,2.1
			c0,0.5,0.1,0.8,0.8,0.7c1,0,2.1,0,3.1,0c0.6,0,0.8-0.1,0.8-0.7c0-1,0-2,0-3c0-0.6,0.1-0.8,0.8-0.8c1.8,0,1.8,0,1.8,1.6
			c0,2.9,0,5.7,0,8.6c0,0.8-0.3,1-1.1,1c-1.6,0-1.6,0-1.6-1.5c0-0.8,0-1.7,0-2.5c0-0.4-0.1-0.7-0.7-0.7c-1.1,0-2.2,0-3.3,0
			c-0.6,0-0.7,0.2-0.7,0.7c0,1.1,0,2.2,0,3.2c0,0.5-0.1,0.8-0.8,0.8c-1.9,0-1.9,0-1.9-1.7C33.4,18.7,33.4,17.5,33.4,16.2z"/>
		<path class="st5" d="M72.7,21.8c1.2-2.6,2.3-5,3.4-7.5c0.4-1,0.9-2,1.3-3c0.2-0.4,0.4-0.7,1-0.7c2.3,0,2.3,0,3.2,1.9
			c1.3,2.8,2.6,5.7,3.8,8.5c0.1,0.2,0.3,0.4,0.2,0.8c-0.8,0-1.6,0-2.5,0c-0.5,0-0.6-0.3-0.7-0.6c-0.4-1.9-1.7-2.2-3.5-2.1
			c-2,0.2-2,0-2.7,1.7c-0.3,0.8-0.7,1.1-1.6,1C74,21.7,73.4,21.8,72.7,21.8z M77.6,17.1c1.1,0,1.9,0,2.8,0c0.4,0,0.6-0.1,0.4-0.5
			c-0.5-1-0.9-2.1-1.5-3.3C78.6,14.7,78.1,15.9,77.6,17.1z"/>
		<path class="st5" d="M51.6,17.3c-0.9,0-1.9,0-2.8,0c-0.5,0-0.6,0.1-0.5,0.6c0.2,1.2,1.1,1.8,2.7,1.9c1.1,0,2.2,0.1,3.2,0
			c0.6,0,0.8,0.1,0.8,0.7c-0.1,1.6,0.1,1.3-1.4,1.3c-1.3,0-2.7,0-4-0.1c-1.9-0.2-3.2-1.2-3.8-2.8c-0.9-2.4-0.8-4.8,1.1-6.9
			c0.8-0.8,1.7-1.3,2.9-1.3c1.5,0,3.1,0,4.6,0c1.1,0,0.6,0.7,0.7,1.2c0.1,0.5,0.1,0.9-0.7,0.9c-1.3-0.1-2.6,0-3.8,0
			c-1.3,0.1-2,0.7-2.2,1.9c-0.1,0.6,0.1,0.7,0.7,0.7c1.7,0,3.5,0,5.2,0c0.9,0,0.9,0.3,0.9,0.9c-0.1,0.5,0.2,1.2-0.9,1.1
			C53.3,17.2,52.4,17.2,51.6,17.3C51.6,17.2,51.6,17.2,51.6,17.3z"/>
		<path class="st5" d="M66.6,14.9c0.7-1,1.5-2,2-3c0.5-1,1.3-1.3,2.4-1.3c0.5,0,0.9,0,1.4,0c0.1,0.4-0.2,0.6-0.3,0.8
			c-0.5,0.7-1,1.5-1.7,2.2c-2,2.1-3,4.5-2.5,7.3c0.1,0.7-0.2,0.9-0.9,0.9c-1.7,0-1.8,0-1.7-1.5c0.2-2.3-0.3-4.3-1.9-6.1
			c-0.8-0.9-1.5-2-2.2-3c-0.3-0.4-0.2-0.6,0.3-0.6c0,0,0.1,0,0.1,0c1.6-0.3,2.7,0.2,3.3,1.7C65.4,13.2,66,14,66.6,14.9z"/>
		<path class="st5" d="M59.6,16.3c0,1.6,0,3.1,0,4.7c0,0.6-0.2,0.8-0.9,0.8c-1.8,0-1.8,0-1.8-1.6c0-2.9,0-5.8,0-8.7
			c0-0.7,0.2-0.9,1-0.9c1.7,0,1.7,0,1.7,1.6C59.6,13.5,59.6,14.9,59.6,16.3z"/>
		<path class="st5" d="M62.7,26.7c-0.8,1-1.4,1-2,0.2c-0.3,0.4-0.1,0.8-0.2,1.2c0,0.3,0.1,0.6-0.4,0.6c-0.5,0-0.4-0.3-0.4-0.5
			c0-0.7,0-1.4,0-2.1c0-0.2-0.1-0.5,0.2-0.5c0.3-0.1,0.6-0.1,0.8,0.2c0.3,0.4,0.6,0.8,0.9,1.1c0.5-0.2,0.6-0.7,0.9-1
			c0.2-0.3,0.5-0.4,0.8-0.4c0.5,0.1,0.3,0.4,0.3,0.7c0,0.7,0,1.4,0,2.1c0,0.3-0.1,0.4-0.5,0.5c-0.4,0-0.5-0.2-0.4-0.5
			C62.7,27.8,62.7,27.4,62.7,26.7z"/>
		<path class="st5" d="M74.5,27.2c0-0.4,0-0.8,0-1.2c0-0.3-0.1-0.6,0.4-0.6c0.5,0,0.5,0.2,0.5,0.5c0,0.7,0,1.4,0,2.1
			c0,0.2,0.1,0.5-0.2,0.5c-0.3,0.1-0.6,0.1-0.8-0.2c-0.4-0.6-0.9-1.1-1.5-1.6c0,0.4,0,0.9,0,1.3c0,0.3,0,0.6-0.4,0.6
			c-0.5,0-0.4-0.3-0.4-0.6c0-0.7,0-1.4,0-2c0-0.2-0.1-0.5,0.3-0.6c0.3-0.1,0.6,0,0.8,0.3c0.4,0.5,0.9,1.1,1.3,1.6
			C74.3,27.3,74.4,27.2,74.5,27.2z"/>
		<path class="st5" d="M59.2,27c0,1.6,0,1.6-1.7,1.6c-1.7,0-1.7,0-1.7-1.6c0-1.6,0.1-1.6,1.9-1.6C59.2,25.4,59.2,25.4,59.2,27z
			 M58.4,27.1c0-0.6,0.1-1.2-0.9-1.1c-1,0-0.8,0.6-0.8,1.1c0,0.6-0.1,1.1,0.9,1.1C58.5,28.1,58.4,27.6,58.4,27.1z"/>
		<path class="st5" d="M90.1,26.7c-1,1-1.2,1-2.2,0.1c0,0.5,0,0.9,0,1.3c0,0.2,0,0.5-0.4,0.5c-0.5,0-0.5-0.2-0.5-0.5
			c0-0.7,0-1.4,0-2.1c0-0.2-0.1-0.5,0.2-0.5c0.3-0.1,0.6,0,0.8,0.2c0.3,0.4,0.5,0.8,1,1.1c0.3-0.4,0.6-0.7,0.8-1.1
			c0.2-0.3,0.5-0.3,0.8-0.3c0.4,0,0.3,0.4,0.3,0.6c0,0.7,0,1.4,0,2.1c0,0.2,0,0.5-0.4,0.5c-0.4,0-0.4-0.2-0.4-0.5
			C90.1,27.7,90.1,27.3,90.1,26.7z"/>
		<path class="st5" d="M64,27c0-1.6,0-1.6,1.8-1.6c0.4,0,0.8,0,1.2,0.2c0.4,0.2,0.6,0.6,0.5,1c-0.1,0.4-0.4,0.7-0.8,0.8
			c-0.3,0.1-0.7,0.1-1,0.1c-0.6,0-0.9,0.1-0.8,0.7c0.1,0.3-0.1,0.4-0.5,0.4c-0.3,0-0.4-0.2-0.4-0.4C64,27.8,64,27.4,64,27z
			 M65.6,25.9c-0.4,0-0.8,0-0.8,0.5c0,0.6,0.4,0.5,0.8,0.5c0.4,0,1,0.1,1-0.5C66.7,25.9,66.1,26,65.6,25.9z"/>
		<path class="st5" d="M94.9,26.8c-0.7,0.7-1.4,0.5-2,0.5c-0.3,0-0.7-0.2-0.7,0.3c0,0.4,0.3,0.5,0.7,0.5c0.5,0,0.9,0,1.4,0
			c0.2,0,0.4,0.1,0.4,0.3c0,0.2-0.2,0.2-0.4,0.2c-0.6,0-1.3,0.1-1.9,0c-1.1-0.2-1.1-1-1.1-1.8c0-0.8,0.3-1.3,1.2-1.4
			c0.6,0,1.3,0,1.9,0c-0.6,0.2-1.1,0.6-1.8,0.6c-0.3,0-0.5,0.2-0.5,0.5c0,0.3,0.3,0.2,0.5,0.2C93.4,26.8,94,26.8,94.9,26.8z"/>
		<path class="st5" d="M81.8,27.3c0-0.5,0-1,0-1.4c0-0.2,0-0.4,0.4-0.4c0.4,0,0.5,0.2,0.5,0.5c0,0.7,0,1.4,0,2.1
			c0,0.2,0.1,0.5-0.3,0.6c-0.3,0.1-0.7,0-0.9-0.3c-0.4-0.6-0.9-1.1-1.5-1.9c0,0.7,0,1.2,0,1.6c0,0.2,0,0.5-0.4,0.5
			c-0.5,0-0.4-0.3-0.4-0.5c0-0.7,0-1.3,0-2c0-0.2-0.2-0.5,0.2-0.6c0.4-0.1,0.6,0,0.9,0.3c0.4,0.6,0.9,1.1,1.3,1.6
			C81.7,27.3,81.8,27.3,81.8,27.3z"/>
		<path class="st5" d="M84.8,26.3c-0.2,0.5-0.3,0.7-0.5,1c-0.2,0.4-0.6,0.9,0.4,0.9c0.2,0,0.3,0.2,0.3,0.3c0,0.2-0.3,0.2-0.4,0.2
			c-0.5,0-1.1,0-1.8,0c0.5-1.1,0.9-2,1.4-3c0.2-0.4,0.9-0.4,1.2,0.1c0.4,0.8,0.7,1.5,1.1,2.3c0.1,0.2,0.4,0.4,0,0.5
			c-0.3,0.1-0.6,0.1-0.7-0.3C85.5,27.7,85.2,27.1,84.8,26.3z"/>
		<path class="st5" d="M69.7,26.3c-0.2,0.4-0.3,0.7-0.5,1c-0.2,0.4-0.6,0.9,0.4,0.9c0.2,0,0.3,0.2,0.3,0.3c0,0.2-0.3,0.2-0.4,0.2
			c-0.5,0-1.1,0-1.8,0c0.5-1,0.9-2,1.4-3c0.3-0.5,0.9-0.4,1.1,0c0.5,0.8,0.8,1.7,1.2,2.6c0.1,0.2,0.1,0.3-0.1,0.4
			c-0.3,0.1-0.6,0-0.7-0.3C70.4,27.7,70,27,69.7,26.3z"/>
		<path class="st5" d="M53.9,28.6c-1.8,0-2.6-1.1-1.9-2.6c0.1-0.3,0.4-0.6,0.8-0.6c0.7,0,1.4,0,2.1,0c0.2,0,0.4,0,0.4,0.2
			c0,0.2-0.2,0.3-0.4,0.3c-0.3,0-0.6,0-0.9,0c-1-0.1-1.3,0.2-1.3,1.1c0,0.9,0.4,1.1,1.3,1.1c0.4,0,1.3-0.3,1.3,0.3
			c0,0.5-0.8,0.1-1.3,0.3C54,28.6,54,28.6,53.9,28.6z"/>
		<path class="st5" d="M75.6,25.5c1-0.3,1.1,0.6,1.6,0.8c0.6-0.2,0.6-1.2,1.5-0.9c0.1,0.2-0.1,0.3-0.2,0.5c-0.6,0.7-1.1,1.3-0.9,2.2
			c0,0.2,0,0.4-0.3,0.4c-0.3,0-0.5-0.1-0.5-0.3C77.1,27.1,76.3,26.4,75.6,25.5z"/>
		<path class="st3" d="M26.6,15.6c0.1,3.4-3,6.5-6.8,6.6c-4.1,0.1-7.4-2.6-7.5-6.4c-0.1-3.6,3-6.6,7.2-6.7
			C23.2,9.1,26.5,12.1,26.6,15.6z M22.1,15.8c0-1.2,0-2.5,0-3.7c0-0.6-0.2-0.9-0.9-0.8c-0.1,0-0.2,0-0.3,0c-0.9-0.1-1.3,0.1-1.2,1
			c0.1,0.6,0,1.3,0,1.9c0,0.4-0.1,0.6-0.5,0.6c-0.5,0-0.6-0.2-0.5-0.6c0-0.8,0-1.6,0-2.4c0-0.4-0.2-0.6-0.6-0.6c-0.3,0-0.7,0-1,0
			c-0.5,0-0.6,0.1-0.6,0.6c0,2.6,0,5.2,0,7.7c0,0.4,0.1,0.6,0.6,0.5c0.3,0,0.6,0,0.9,0c0.6,0.1,0.9-0.1,0.8-0.7
			c-0.1-0.8,0-1.5,0-2.3c0-0.3,0.1-0.5,0.5-0.5c0.4,0,0.6,0.1,0.6,0.5c0,0.7,0,1.5,0,2.2c0,0.6,0.1,0.9,0.8,0.8c0.2,0,0.5,0,0.7,0
			c0.6,0.1,0.8-0.1,0.8-0.7C22,18.3,22.1,17.1,22.1,15.8z"/>
		<path class="st3" d="M77.6,17.1c0.6-1.3,1.1-2.4,1.7-3.8c0.6,1.3,1,2.3,1.5,3.3c0.2,0.4,0,0.5-0.4,0.5
			C79.5,17.1,78.6,17.1,77.6,17.1z"/>
		<path class="st3" d="M58.4,27.1c0,0.6,0.1,1.1-0.9,1.1c-1,0-0.9-0.5-0.9-1.1c0-0.5-0.2-1.1,0.8-1.1C58.5,25.9,58.4,26.4,58.4,27.1
			z"/>
		<path class="st3" d="M65.6,25.9c0.4,0,1-0.1,1,0.6c0,0.5-0.6,0.5-1,0.5c-0.4,0-0.8,0-0.8-0.5C64.9,25.9,65.2,25.9,65.6,25.9z"/>
		<path class="st4" d="M22.1,15.8c0,1.2,0,2.5,0,3.7c0,0.6-0.2,0.8-0.8,0.7c-0.2,0-0.5,0-0.7,0c-0.7,0.1-0.9-0.2-0.8-0.8
			c0-0.7,0-1.5,0-2.2c0-0.4-0.2-0.5-0.6-0.5c-0.4,0-0.5,0.2-0.5,0.5c0,0.8,0,1.5,0,2.3c0,0.6-0.2,0.8-0.8,0.7c-0.3,0-0.6,0-0.9,0
			c-0.4,0-0.6-0.2-0.6-0.5c0-2.6,0-5.2,0-7.7c0-0.4,0.2-0.6,0.6-0.6c0.3,0,0.7,0,1,0c0.5,0,0.7,0.1,0.6,0.6c0,0.8,0,1.6,0,2.4
			c0,0.4,0.1,0.6,0.5,0.6c0.5,0,0.5-0.2,0.5-0.6c0-0.6,0.1-1.3,0-1.9c-0.1-0.9,0.3-1.2,1.2-1c0.1,0,0.2,0,0.3,0
			c0.7-0.1,0.9,0.1,0.9,0.8C22,13.4,22.1,14.6,22.1,15.8z"/>
	</g>
</g>
<rect x="49.9" y="24.2" class="st6" width="69.9" height="13.3"/>
</svg>
